<svg width="121" height="24" viewBox="0 0 121 24" fill="none" xmlns="http://www.w3.org/2000/svg">
<path d="M5.752 11.896C5.752 12.984 5.88 13.9653 6.136 14.84C6.41333 15.7147 6.79733 16.472 7.288 17.112C7.8 17.7307 8.41867 18.2107 9.144 18.552C9.86933 18.8933 10.7013 19.064 11.64 19.064C12.5573 19.064 13.3787 18.8933 14.104 18.552C14.8507 18.2107 15.4693 17.7307 15.96 17.112C16.472 16.472 16.856 15.7147 17.112 14.84C17.3893 13.9653 17.528 12.984 17.528 11.896C17.528 10.808 17.3893 9.82667 17.112 8.952C16.856 8.056 16.472 7.29867 15.96 6.68C15.4693 6.04 14.8507 5.54933 14.104 5.208C13.3787 4.86667 12.5573 4.696 11.64 4.696C10.7013 4.696 9.86933 4.87733 9.144 5.24C8.41867 5.58133 7.8 6.072 7.288 6.712C6.79733 7.33067 6.41333 8.088 6.136 8.984C5.88 9.85867 5.752 10.8293 5.752 11.896ZM22.68 11.896C22.68 13.7947 22.392 15.4693 21.816 16.92C21.2613 18.3493 20.4933 19.5547 19.512 20.536C18.5307 21.496 17.3573 22.2213 15.992 22.712C14.648 23.2027 13.1973 23.448 11.64 23.448C10.1253 23.448 8.696 23.2027 7.352 22.712C6.008 22.2213 4.83467 21.496 3.832 20.536C2.82933 19.5547 2.04 18.3493 1.464 16.92C0.888 15.4693 0.6 13.7947 0.6 11.896C0.6 9.99733 0.898667 8.33333 1.496 6.904C2.09333 5.45333 2.89333 4.23733 3.896 3.256C4.92 2.27467 6.09333 1.53867 7.416 1.048C8.76 0.557332 10.168 0.311998 11.64 0.311998C13.1547 0.311998 14.584 0.557332 15.928 1.048C17.272 1.53867 18.4453 2.27467 19.448 3.256C20.4507 4.23733 21.24 5.45333 21.816 6.904C22.392 8.33333 22.68 9.99733 22.68 11.896ZM29.0493 20.184C29.7959 20.184 30.3186 20.0773 30.6173 19.864C30.9159 19.6293 31.0653 19.3413 31.0653 19C31.0653 18.1253 30.3186 17.688 28.8253 17.688H27.5133V15.064H28.8253C29.3159 15.064 29.7213 14.968 30.0413 14.776C30.3613 14.584 30.5213 14.296 30.5213 13.912C30.5213 13.2293 30.0519 12.888 29.1133 12.888C28.6226 12.888 28.1319 12.9733 27.6413 13.144C27.1506 13.2933 26.6813 13.4747 26.2333 13.688L25.0173 11.16C25.5506 10.8187 26.2119 10.5307 27.0013 10.296C27.8119 10.04 28.6013 9.912 29.3693 9.912C30.2226 9.912 30.9373 10.008 31.5133 10.2C32.1106 10.392 32.5799 10.6587 32.9213 11C33.2839 11.32 33.5399 11.704 33.6892 12.152C33.8386 12.5787 33.9133 13.0267 33.9133 13.496C33.9133 13.944 33.8066 14.3707 33.5933 14.776C33.4013 15.1813 33.0599 15.576 32.5693 15.96C33.2519 16.28 33.7426 16.7067 34.0413 17.24C34.3613 17.7733 34.5213 18.3707 34.5213 19.032C34.5213 19.608 34.4253 20.152 34.2333 20.664C34.0413 21.176 33.7319 21.624 33.3053 22.008C32.8786 22.3707 32.3133 22.6587 31.6093 22.872C30.9266 23.0853 30.0839 23.192 29.0813 23.192C28.7186 23.192 28.3346 23.1707 27.9293 23.128C27.5453 23.0853 27.1613 23.0213 26.7773 22.936C26.3933 22.8507 26.0306 22.7653 25.6893 22.68C25.3693 22.5733 25.0813 22.456 24.8253 22.328L25.5613 19.48C26.2866 19.7787 26.8946 19.9707 27.3853 20.056C27.8973 20.1413 28.4519 20.184 29.0493 20.184ZM46.0213 6.744C46.8319 6.50933 47.8773 6.296 49.1573 6.104C50.4373 5.89067 51.7813 5.784 53.1892 5.784C54.6186 5.784 55.8026 5.976 56.7413 6.36C57.7013 6.72267 58.4586 7.24533 59.0133 7.928C59.5679 8.61067 59.9626 9.42133 60.1973 10.36C60.4319 11.2987 60.5493 12.344 60.5493 13.496V23H55.7813V14.072C55.7813 12.536 55.5786 11.448 55.1733 10.808C54.7679 10.168 54.0106 9.848 52.9013 9.848C52.5599 9.848 52.1973 9.86933 51.8133 9.912C51.4293 9.93333 51.0879 9.96533 50.7893 10.008V23H46.0213V6.744ZM64.065 14.712C64.065 13.2187 64.289 11.9173 64.737 10.808C65.2063 9.67733 65.8143 8.73867 66.561 7.992C67.3077 7.24533 68.161 6.68 69.121 6.296C70.1023 5.912 71.105 5.72 72.129 5.72C74.5183 5.72 76.4063 6.456 77.793 7.928C79.1797 9.37867 79.873 11.5227 79.873 14.36C79.873 14.6373 79.8623 14.9467 79.841 15.288C79.8197 15.608 79.7983 15.896 79.777 16.152H68.961C69.0677 17.1333 69.5263 17.912 70.337 18.488C71.1477 19.064 72.2357 19.352 73.601 19.352C74.4757 19.352 75.329 19.2773 76.161 19.128C77.0143 18.9573 77.7077 18.7547 78.241 18.52L78.881 22.392C78.625 22.52 78.2837 22.648 77.857 22.776C77.4303 22.904 76.9503 23.0107 76.417 23.096C75.905 23.2027 75.3503 23.288 74.753 23.352C74.1557 23.416 73.5583 23.448 72.961 23.448C71.4463 23.448 70.1237 23.224 68.993 22.776C67.8837 22.328 66.9557 21.72 66.209 20.952C65.4837 20.1627 64.9397 19.2347 64.577 18.168C64.2357 17.1013 64.065 15.9493 64.065 14.712ZM75.265 12.888C75.2437 12.4827 75.169 12.088 75.041 11.704C74.9343 11.32 74.753 10.9787 74.497 10.68C74.2623 10.3813 73.953 10.136 73.569 9.944C73.2063 9.752 72.7477 9.656 72.193 9.656C71.6597 9.656 71.201 9.752 70.817 9.944C70.433 10.1147 70.113 10.3493 69.857 10.648C69.601 10.9467 69.3983 11.2987 69.249 11.704C69.121 12.088 69.025 12.4827 68.961 12.888H75.265ZM93.7925 13.336C93.3658 14.9573 92.9072 16.568 92.4165 18.168C91.9472 19.768 91.4458 21.3787 90.9125 23H87.2005C86.8165 22.104 86.4005 21.0373 85.9525 19.8C85.5045 18.5627 85.0352 17.2187 84.5445 15.768C84.0752 14.296 83.5845 12.7493 83.0725 11.128C82.5818 9.48533 82.1018 7.832 81.6325 6.168H86.6565C86.8272 6.936 87.0085 7.77867 87.2005 8.696C87.4138 9.592 87.6272 10.52 87.8405 11.48C88.0752 12.44 88.3098 13.4107 88.5445 14.392C88.8005 15.352 89.0565 16.28 89.3125 17.176C89.5898 16.2373 89.8565 15.2773 90.1125 14.296C90.3898 13.3147 90.6458 12.3547 90.8805 11.416C91.1365 10.456 91.3712 9.53867 91.5845 8.664C91.8192 7.768 92.0218 6.936 92.1925 6.168H95.6485C95.8192 6.936 96.0112 7.768 96.2245 8.664C96.4378 9.53867 96.6618 10.456 96.8965 11.416C97.1312 12.3547 97.3765 13.3147 97.6325 14.296C97.8885 15.2773 98.1552 16.2373 98.4325 17.176C98.6885 16.28 98.9445 15.352 99.2005 14.392C99.4565 13.4107 99.6912 12.44 99.9045 11.48C100.139 10.52 100.353 9.592 100.545 8.696C100.758 7.77867 100.95 6.936 101.121 6.168H106.081C105.611 7.832 105.121 9.48533 104.609 11.128C104.118 12.7493 103.627 14.296 103.137 15.768C102.667 17.2187 102.198 18.5627 101.729 19.8C101.281 21.0373 100.865 22.104 100.481 23H96.7685C96.2352 21.3787 95.7125 19.768 95.2005 18.168C94.6885 16.568 94.2192 14.9573 93.7925 13.336ZM113.478 19.576C114.353 19.576 114.972 19.4907 115.334 19.32C115.697 19.1493 115.878 18.8187 115.878 18.328C115.878 17.944 115.644 17.6133 115.174 17.336C114.705 17.0373 113.99 16.7067 113.03 16.344C112.284 16.0667 111.601 15.7787 110.982 15.48C110.385 15.1813 109.873 14.8293 109.446 14.424C109.02 13.9973 108.689 13.496 108.454 12.92C108.22 12.344 108.102 11.6507 108.102 10.84C108.102 9.26133 108.689 8.01333 109.862 7.096C111.036 6.17867 112.646 5.72 114.694 5.72C115.718 5.72 116.7 5.816 117.638 6.008C118.577 6.17867 119.324 6.37067 119.878 6.584L119.046 10.296C118.492 10.104 117.884 9.93333 117.222 9.784C116.582 9.63467 115.857 9.56 115.046 9.56C113.553 9.56 112.806 9.976 112.806 10.808C112.806 11 112.838 11.1707 112.902 11.32C112.966 11.4693 113.094 11.6187 113.286 11.768C113.478 11.896 113.734 12.0453 114.054 12.216C114.396 12.3653 114.822 12.536 115.334 12.728C116.38 13.112 117.244 13.496 117.926 13.88C118.609 14.2427 119.142 14.648 119.526 15.096C119.932 15.5227 120.209 16.0027 120.358 16.536C120.529 17.0693 120.614 17.688 120.614 18.392C120.614 20.056 119.985 21.3147 118.726 22.168C117.489 23.0213 115.729 23.448 113.446 23.448C111.953 23.448 110.705 23.32 109.702 23.064C108.721 22.808 108.038 22.5947 107.654 22.424L108.454 18.552C109.265 18.872 110.097 19.128 110.95 19.32C111.804 19.4907 112.646 19.576 113.478 19.576Z" fill="#E1E1E6"/>
<path d="M42.8183 20.472C42.8183 21.432 42.5089 22.168 41.8903 22.68C41.2929 23.1707 40.6103 23.416 39.8423 23.416C39.0743 23.416 38.3809 23.1707 37.7623 22.68C37.1649 22.168 36.8663 21.432 36.8663 20.472C36.8663 19.512 37.1649 18.7867 37.7623 18.296C38.3809 17.784 39.0743 17.528 39.8423 17.528C40.6103 17.528 41.2929 17.784 41.8903 18.296C42.5089 18.7867 42.8183 19.512 42.8183 20.472Z" fill="#61DCFB"/>
</svg>
